PathFileType	4	(X/Y/Z)	CPRIT_Patient3_L_AnkleIso_Processed.TRC
DataRate	CameraRate	NumFrames	NumMarkers	Units	OrigDataRate	OrigDataStartFrame	OrigNumFrames
150.205761316872	150.205761316872	7	36	m	150.205761316872	183	       731
Frame#	Time	R.Heel			R.Midfoot.Superior			R.Midfoot.Lateral			R.Toe			L.Heel			L.Midfoot.Superior			L.Midfoot.Lateral			L.Toe			R.Shank.Superior			R.Shank.Inferior			R.Shank.Lateral			R.Shank.Posterior			L.Shank.Superior			L.Shank.Inferior			L.Shank.Posterior			L.Shank.Lateral			R.Patella			L.Patella			R.Thigh.Superior			R.Thigh.Lateral			R.Thigh.Inferior			L.Thigh.Superior			L.Thigh.Inferior			L.Thigh.Lateral			L.Asis			R.Asis			R.Shoulder			L.Shoulder			C7			J.Notch			Sternum			Thoracic			L.Elbow			L.Wrist			R.Elbow			R.Wrist			
		X1	Y1	Z1	X2	Y2	Z2	X3	Y3	Z3	X4	Y4	Z4	X5	Y5	Z5	X6	Y6	Z6	X7	Y7	Z7	X8	Y8	Z8	X9	Y9	Z9	X10	Y10	Z10	X11	Y11	Z11	X12	Y12	Z12	X13	Y13	Z13	X14	Y14	Z14	X15	Y15	Z15	X16	Y16	Z16	X17	Y17	Z17	X18	Y18	Z18	X19	Y19	Z19	X20	Y20	Z20	X21	Y21	Z21	X22	Y22	Z22	X23	Y23	Z23	X24	Y24	Z24	X25	Y25	Z25	X26	Y26	Z26	X27	Y27	Z27	X28	Y28	Z28	X29	Y29	Z29	X30	Y30	Z30	X31	Y31	Z31	X32	Y32	Z32	X33	Y33	Z33	X34	Y34	Z34	X35	Y35	Z35	X36	Y36	Z36	

183	1.211671232877	0.416287635960	0.049488802651	0.096338583165	0.571919247757	0.098692588130	0.167496124933	0.469571906264	0.037879308869	0.175926611755	0.677656263464	0.054936000383	0.217801088276	0.705116672061	0.115687076069	-0.066923761568	0.870357832587	0.127892768174	-0.138605017727	0.761120513430	0.081790117025	-0.139773960574	0.970893795425	0.058673041855	-0.164522678226	0.528985472918	0.359467953122	0.182291581934	0.520282368452	0.239845093678	0.173402273783	0.440893365942	0.293612994618	0.211629798294	0.394094025353	0.359592240585	0.143585838691	0.731723768492	0.422741097802	-0.118286267655	0.764373338322	0.297771932195	-0.120145149585	0.611767496332	0.355117967667	-0.073208599269	0.680994668383	0.320258468813	-0.145485339328	0.561070350469	0.465946725689	0.172206270135	0.717281667877	0.541049920710	-0.107168485877	0.619681266157	0.777038493234	0.193024141234	0.529646983943	0.710037840471	0.243375575519	0.606290999869	0.616858008140	0.166588223654	0.638055901944	0.821761916129	-0.092997897239	0.684569790211	0.680880049807	-0.098898099406	0.563532536802	0.731975203121	-0.143853638025	0.596070478171	0.949929594733	-0.060068498634	0.619396138024	0.937035493130	0.177104811775	0.543287547021	1.462183497265	0.209427352192	0.576949359230	1.435219928996	-0.106678870619	0.524852611278	1.483241956204	0.062985933271	0.627289214946	1.371029250985	0.061810406707	0.668410241994	1.191361902778	0.056672405684	0.417983851211	1.333244130205	0.061750798376	0.530198551078	1.177709688206	-0.293591888993	0.613588310576	0.987847409668	-0.433143060701	0.503568185971	1.186534348239	0.407747304981	0.660871912783	0.988403433582	0.416279566330	
184	1.218328767123	0.416288421094	0.049487907167	0.096337520264	0.571920146483	0.098692141847	0.167496020937	0.469572312121	0.037879520133	0.175926053630	0.677656246062	0.054934376810	0.217800305445	0.705022085815	0.116029454714	-0.066978468649	0.870579106012	0.127643561206	-0.138032396370	0.761276561138	0.081758386627	-0.139467192974	0.971101937866	0.058133179690	-0.163228344880	0.528966624164	0.359474595599	0.182269825173	0.520270529895	0.239847674805	0.173389325153	0.440875036843	0.293613698017	0.211603518086	0.394074747830	0.359587116439	0.143547935438	0.731826561448	0.422765417897	-0.118120582244	0.764514721380	0.297802536416	-0.119950698836	0.611818928431	0.355119460452	-0.073234120082	0.681160766317	0.320281971679	-0.145439198378	0.561042608636	0.465951615112	0.172173256048	0.717351957722	0.541083749232	-0.106996621272	0.619624390556	0.777045156791	0.192987612300	0.529587798227	0.710045906137	0.243332667233	0.606251405928	0.616868278485	0.166559121452	0.638109406579	0.821799869746	-0.092970472984	0.684612683340	0.680902792996	-0.098815237209	0.563634282639	0.731994271701	-0.143851847911	0.596058450014	0.949961841049	-0.060099431458	0.619339577816	0.937049582356	0.177083280570	0.543247570067	1.462189572849	0.209412919798	0.576926319892	1.435229605664	-0.106698361446	0.524811171974	1.483251766894	0.062967754774	0.627249711033	1.371041710487	0.061792447702	0.668384066244	1.191385041120	0.056656214429	0.417939462176	1.333255332316	0.061716222922	0.530185259393	1.177719390981	-0.293614605078	0.613585617767	0.987849363179	-0.433149791876	0.503546283791	1.186527067534	0.407720015870	0.660864877403	0.988405044389	0.416271150696	
185	1.224986301370	0.416289355317	0.049487073435	0.096336489415	0.571920992765	0.098691786833	0.167495783630	0.469572551480	0.037879780664	0.175925389128	0.677656156691	0.054932515571	0.217799625762	0.704930217154	0.116364196714	-0.067026110399	0.870804534272	0.127397620419	-0.137438369640	0.761440948997	0.081724607026	-0.139147660694	0.971316437610	0.057601976093	-0.161902832198	0.528947837881	0.359481334326	0.182247719010	0.520258698071	0.239850065526	0.173376027408	0.440856527007	0.293614354027	0.211576352825	0.394055775735	0.359582161360	0.143508568438	0.731934892359	0.422788122811	-0.117943081118	0.764660830412	0.297831202013	-0.119741784866	0.611872776202	0.355120262695	-0.073255872074	0.681333690721	0.320303861548	-0.145385123192	0.561015351542	0.465956588569	0.172140536936	0.717427246974	0.541116169749	-0.106814203884	0.619566980059	0.777052157796	0.192951237267	0.529527774445	0.710054006144	0.243288898454	0.606212001057	0.616879066848	0.166530083350	0.638168820947	0.821837353661	-0.092938095279	0.684657232884	0.680923711052	-0.098731228248	0.563744357868	0.732012653789	-0.143847882962	0.596049934945	0.949994949522	-0.060130178924	0.619282083023	0.937064557399	0.177062615132	0.543204973821	1.462195107146	0.209399031337	0.576902521705	1.435240426783	-0.106718583768	0.524767499890	1.483261545012	0.062949697113	0.627208973452	1.371055616190	0.061774733180	0.668358155200	1.191409657122	0.056640502115	0.417894112647	1.333265667558	0.061680116854	0.530171742453	1.177729137431	-0.293637383061	0.613583090916	0.987851257302	-0.433156432392	0.503521749842	1.186518591806	0.407692307458	0.660857019167	0.988406763540	0.416263255833	
186	1.231643835616	0.416290431847	0.049486322269	0.096335515199	0.571921786506	0.098691526249	0.167495453229	0.469572620963	0.037880091350	0.175924627284	0.677656002298	0.054930431494	0.217799053069	0.704841153598	0.116689222502	-0.067066138906	0.871033681357	0.127156383352	-0.136823392140	0.761613658168	0.081688357108	-0.138815506531	0.971537218242	0.057082524235	-0.160548518186	0.528929050806	0.359488146632	0.182225382596	0.520246836574	0.239852277319	0.173362486071	0.440837789974	0.293614961928	0.211548387551	0.394037080084	0.359577357787	0.143467848151	0.732048288417	0.422808917479	-0.117753611457	0.764811014691	0.297857657730	-0.119518182366	0.611928517221	0.355120234944	-0.073273541719	0.681512772648	0.320323835897	-0.145322827940	0.560988585182	0.465961660847	0.172108477415	0.717507237838	0.541146869990	-0.106621145395	0.619509084103	0.777059483771	0.192915356709	0.529466877722	0.710062082156	0.243244437158	0.606172814891	0.616890301388	0.166501452749	0.638233975027	0.821874049483	-0.092900978395	0.684702911452	0.680942418149	-0.098646572163	0.563862351263	0.732030019339	-0.143841566387	0.596044999762	0.950028590682	-0.060160607508	0.619223744540	0.937080308010	0.177042861248	0.543159606930	1.462200056072	0.209385588160	0.576878102903	1.435252408198	-0.106739525214	0.524721626512	1.483271254492	0.062931584510	0.627166995053	1.371070941296	0.061757211523	0.668332636796	1.191435752784	0.056625253495	0.417847877284	1.333275056897	0.061642328618	0.530158100191	1.177738986839	-0.293660342128	0.613580759969	0.987853079175	-0.433163008914	0.503494452677	1.186508842732	0.407664076265	0.660848292240	0.988408561354	0.416255922869	
187	1.238301369863	0.416291639397	0.049485670132	0.096334617969	0.571922529439	0.098691360405	0.167495076606	0.469572520124	0.037880447505	0.175923776958	0.677655791042	0.054928144221	0.217798587819	0.704755007833	0.117002656204	-0.067098092202	0.871266254846	0.126921239214	-0.136187913254	0.761794734492	0.081649233719	-0.138470881626	0.971764299876	0.056577721787	-0.159167663570	0.528910188277	0.359495007770	0.182202931517	0.520234900253	0.239854323508	0.173348803388	0.440818771694	0.293615523411	0.211519712584	0.394018621652	0.359572685876	0.143425901691	0.732166281648	0.422827555468	-0.117552082582	0.764964670905	0.297881691816	-0.119279752010	0.611985675699	0.355119253564	-0.073286838594	0.681697365225	0.320341628301	-0.145252085052	0.560962295947	0.465966846011	0.172077439804	0.717591638806	0.541175591144	-0.106417377621	0.619450747746	0.777067109974	0.192880314047	0.529405056284	0.710070080446	0.243199456041	0.606133858364	0.616901906358	0.166473595667	0.638304641210	0.821909662498	-0.092859378580	0.684749215615	0.680958577466	-0.098561705555	0.563987787487	0.732046044614	-0.143832730402	0.596043665890	0.950062435210	-0.060190596717	0.619164669280	0.937096700149	0.177024035027	0.543111328862	1.462204373311	0.209372475574	0.576853224798	1.435265571232	-0.106761175817	0.524673603457	1.483280860307	0.062913232064	0.627123784729	1.371087637444	0.061739829051	0.668307637773	1.191463316375	0.056610450314	0.417800842256	1.333283424514	0.061602695169	0.530144429939	1.177749005692	-0.293683606954	0.613578650998	0.987854821897	-0.433169547865	0.503464257299	1.186497736705	0.407635180991	0.660838656653	0.988410413893	0.416249172686	
188	1.244958904110	0.416292962470	0.049485128951	0.096333812458	0.571923224868	0.098691287651	0.167494703813	0.469572251406	0.037880839595	0.175922846635	0.677655532071	0.054925677791	0.217798227293	0.704671929026	0.117302869645	-0.067121568472	0.871502092836	0.126693489161	-0.135532385961	0.761984271609	0.081606862366	-0.138113925351	0.971997773105	0.056090202912	-0.157762397509	0.528891166065	0.359501892251	0.182180473613	0.520222836795	0.239856219612	0.173335075627	0.440799411963	0.293616042925	0.211490419641	0.394000352515	0.359568124875	0.143382866724	0.732288415029	0.422843844715	-0.117338476698	0.765121251563	0.297903155175	-0.119026448540	0.612043840563	0.355117215586	-0.073295475729	0.681886849367	0.320357010021	-0.145172713797	0.560936450584	0.465972157027	0.172047768217	0.717680170192	0.541202135930	-0.106202865557	0.619392011640	0.777075001123	0.192846439730	0.529342246812	0.710077954790	0.243154126959	0.606095123830	0.616913804973	0.166446881305	0.638380534645	0.821943926021	-0.092813571103	0.684795689539	0.680971911482	-0.098476974782	0.564120136393	0.732060420895	-0.143821220264	0.596045911428	0.950096166345	-0.060220042283	0.619104978957	0.937113582632	0.177006125589	0.543060015984	1.462208011728	0.209359567554	0.576828068317	1.435279942382	-0.106783530847	0.524623501943	1.483290329159	0.062894455665	0.627079370144	1.371105638509	0.061722531593	0.668283282053	1.191492323052	0.056596070788	0.417753104890	1.333290699436	0.061561049327	0.530130826492	1.177759263772	-0.293707299231	0.613576785492	0.987856485247	-0.433176075261	0.503431031753	1.186485189058	0.407605447304	0.660828081217	0.988412304080	0.416243003006	
189	1.251616438356	0.416294381822	0.049484706196	0.096333106786	0.571923877411	0.098691305346	0.167494384506	0.469571820057	0.037881254698	0.175921844487	0.677655235223	0.054923059832	0.217797965991	0.704592113602	0.117588516709	-0.067136198829	0.871741144808	0.126474308547	-0.134857278602	0.762182393066	0.081560906468	-0.137744747639	0.972237774033	0.055622283843	-0.156334712464	0.528871892671	0.359508775283	0.182158105784	0.520210588801	0.239857983874	0.173321390980	0.440779646317	0.293616528016	0.211460598442	0.393982218294	0.359563654264	0.143338886359	0.732414247814	0.422857651084	-0.117112858960	0.765280271348	0.297921962126	-0.118758326920	0.612102681242	0.355114042457	-0.073299148252	0.682080637194	0.320369789748	-0.145084566969	0.560910996751	0.465977604667	0.172019772192	0.717772568864	0.541226374486	-0.105977620462	0.619332912740	0.777083113870	0.192814035845	0.529278381432	0.710085668483	0.243108615006	0.606056586760	0.616925921569	0.166421660661	0.638461315419	0.821976603956	-0.092763832514	0.684841949420	0.680982210023	-0.098392609141	0.564258822421	0.732072862124	-0.143806898317	0.596051673883	0.950129489037	-0.060248858426	0.619044807970	0.937130794360	0.176989099378	0.543005567077	1.462210925427	0.209346731354	0.576802829340	1.435295550479	-0.106806592220	0.524571412680	1.483299629733	0.062875079013	0.627033799844	1.371124863662	0.061705265547	0.668259688995	1.191522734841	0.056582088951	0.417704772660	1.333296817896	0.061517227576	0.530117383282	1.177769829893	-0.293731531025	0.613575180021	0.987858074767	-0.433182617411	0.503394655051	1.186471118472	0.407574674691	0.660816547173	0.988414220922	0.416237383815	
